# xmcd
# Track frame offsets:
# 150
# 20305
# 33561
# 53668
# 68962
# 85099
# 96422
# 117082
# 127728
# 140196
# 161054
# 170641
# 193714
# 207731
# 237584
# 255621
# 275874
# 294108
#
# Disc length: 4104 seconds
# Revision: 0
# Processed by: cddbd v1.5.1PL0 Copyright (c) Steve Scherf et al.
# Submitted via: VisiTrax 2.9.9.209 - For more info visit www.synapsa.com
#
DISCID=12100612
DTITLE=Miki Nervio and the Bluesmakers - Autentic Rial Strit Blus
DYEAR=1999
DGENRE=Blues
TTITLE0=Nobody none of my jelly roll
TTITLE1=Last fair deal go down
TTITLE2=Pterodactil Blues
TTITLE3=Ain't she sweet
TTITLE4=All by myself
TTITLE5=Ain't gonna drink whisky no more
TTITLE6=Madeline caeu no pozo negro
TTITLE7=Waitin' for Robert C. Lee
TTITLE8=Quit me baby
TTITLE9=When you're smiling
TTITLE10=Bottleneck blues
TTITLE11=Improvisación en Re
TTITLE12=Sweet life boogie
TTITLE13=St. James Infirmary
TTITLE14=Country
TTITLE15=Homenaxe a Mike Bloonfield
TTITLE16=Feeli' good
TTITLE17=You may leave but this will bring you back
EXTD=
EXTT0=
EXTT1=
EXTT2=
EXTT3=
EXTT4=
EXTT5=
EXTT6=
EXTT7=
EXTT8=
EXTT9=
EXTT10=
EXTT11=
EXTT12=
EXTT13=
EXTT14=
EXTT15=
EXTT16=
EXTT17=
PLAYORDER=
